<?xml version="1.0" encoding="UTF-8" standalone="no"?>
<!DOCTYPE svg PUBLIC "-//W3C//DTD SVG 1.1//EN"
 "http://www.w3.org/Graphics/SVG/1.1/DTD/svg11.dtd">
<!-- Generated by graphviz version 2.26.3 (20100126.1600)
 -->
<!-- Title: G Pages: 1 -->
<svg preserveAspectRatio="xMinYMin meet" width="404pt" height="142pt"
 viewBox="0.00 0.00 404.00 142.00" xmlns="http://www.w3.org/2000/svg" xmlns:xlink="http://www.w3.org/1999/xlink">
<g id="graph1" class="graph" transform="scale(1 1) rotate(0) translate(4 138)">
<title>G</title>
<polygon fill="white" stroke="white" points="-4,5 -4,-138 401,-138 401,5 -4,5"/>
<text text-anchor="middle" x="198" y="-9.4" font-family="Times Roman,serif" font-size="14.00">Logical Inference White Box</text>
<!-- end -->
<g id="node1" class="node"><title>end</title>
<ellipse fill="gray" stroke="black" cx="342" cy="-80" rx="54" ry="54"/>
<text text-anchor="middle" x="342" y="-73.7" font-family="Times Roman,serif" font-size="22.00">end</text>
</g>
<!-- logic -->
<g id="node2" class="node"><title>logic</title>
<ellipse fill="white" stroke="black" cx="198" cy="-80" rx="54" ry="54"/>
<text text-anchor="middle" x="198" y="-73.7" font-family="Times Roman,serif" font-size="22.00">logic</text>
</g>
<!-- logic&#45;&gt;end -->
<g id="edge4" class="edge"><title>logic&#45;&gt;end</title>
<path fill="none" stroke="black" d="M252.03,-80C260.314,-80 268.936,-80 277.42,-80"/>
<polygon fill="black" stroke="black" points="277.667,-83.5001 287.667,-80 277.667,-76.5001 277.667,-83.5001"/>
</g>
<!-- start -->
<g id="node3" class="node"><title>start</title>
<ellipse fill="gray" stroke="black" cx="54" cy="-80" rx="54" ry="54"/>
<text text-anchor="middle" x="54" y="-73.7" font-family="Times Roman,serif" font-size="22.00">start</text>
</g>
<!-- start&#45;&gt;logic -->
<g id="edge2" class="edge"><title>start&#45;&gt;logic</title>
<path fill="none" stroke="black" d="M108.03,-80C116.314,-80 124.936,-80 133.42,-80"/>
<polygon fill="black" stroke="black" points="133.667,-83.5001 143.667,-80 133.667,-76.5001 133.667,-83.5001"/>
</g>
</g>
</svg>
