<?xml version="1.0" encoding="UTF-8" standalone="no"?>
<!DOCTYPE svg PUBLIC "-//W3C//DTD SVG 1.1//EN"
 "http://www.w3.org/Graphics/SVG/1.1/DTD/svg11.dtd">
<!-- Generated by graphviz version 2.26.3 (20100126.1600)
 -->
<!-- Title: G Pages: 1 -->
<svg  preserveAspectRatio="xMinYMin meet" width="548pt" height="268pt"
 viewBox="0.00 0.00 548.00 268.00" xmlns="http://www.w3.org/2000/svg" xmlns:xlink="http://www.w3.org/1999/xlink">
<g id="graph1" class="graph" transform="scale(1 1) rotate(0) translate(4 264)">
<title>G</title>
<polygon fill="white" stroke="white" points="-4,5 -4,-264 545,-264 545,5 -4,5"/>
<text text-anchor="middle" x="270" y="-9.4" font-family="Times Roman,serif" font-size="14.00">Parallelize and Combine (e.g. weigh)</text>
<!-- end -->
<g id="node1" class="node"><title>end</title>
<ellipse fill="gray" stroke="black" cx="486" cy="-143" rx="54" ry="54"/>
<text text-anchor="middle" x="486" y="-137.8" font-family="Times Roman,serif" font-size="18.00">end</text>
</g>
<!-- magic -->
<g id="node2" class="node"><title>magic</title>
<ellipse fill="black" stroke="black" cx="198" cy="-206" rx="54" ry="54"/>
<text text-anchor="middle" x="198" y="-200.8" font-family="Times Roman,serif" font-size="18.00" fill="white">magic</text>
</g>
<!-- combine -->
<g id="node4" class="node"><title>combine</title>
<ellipse fill="black" stroke="black" cx="342" cy="-143" rx="54" ry="54"/>
<text text-anchor="middle" x="342" y="-137.8" font-family="Times Roman,serif" font-size="18.00" fill="white">combine</text>
</g>
<!-- magic&#45;&gt;combine -->
<g id="edge6" class="edge"><title>magic&#45;&gt;combine</title>
<path fill="none" stroke="black" d="M247.557,-184.319C258.983,-179.32 271.248,-173.954 283.031,-168.799"/>
<polygon fill="black" stroke="black" points="284.593,-171.936 292.352,-164.721 281.788,-165.523 284.593,-171.936"/>
</g>
<!-- logic -->
<g id="node3" class="node"><title>logic</title>
<ellipse fill="white" stroke="black" cx="198" cy="-80" rx="54" ry="54"/>
<text text-anchor="middle" x="198" y="-74.8" font-family="Times Roman,serif" font-size="18.00">logic</text>
</g>
<!-- logic&#45;&gt;combine -->
<g id="edge8" class="edge"><title>logic&#45;&gt;combine</title>
<path fill="none" stroke="black" d="M247.557,-101.681C258.983,-106.68 271.248,-112.046 283.031,-117.201"/>
<polygon fill="black" stroke="black" points="281.788,-120.477 292.352,-121.279 284.593,-114.064 281.788,-120.477"/>
</g>
<!-- combine&#45;&gt;end -->
<g id="edge10" class="edge"><title>combine&#45;&gt;end</title>
<path fill="none" stroke="black" d="M396.03,-143C404.314,-143 412.936,-143 421.42,-143"/>
<polygon fill="black" stroke="black" points="421.667,-146.5 431.667,-143 421.667,-139.5 421.667,-146.5"/>
</g>
<!-- start -->
<g id="node5" class="node"><title>start</title>
<ellipse fill="gray" stroke="black" cx="54" cy="-143" rx="54" ry="54"/>
<text text-anchor="middle" x="54" y="-137.8" font-family="Times Roman,serif" font-size="18.00">start</text>
</g>
<!-- start&#45;&gt;magic -->
<g id="edge2" class="edge"><title>start&#45;&gt;magic</title>
<path fill="none" stroke="black" d="M103.557,-164.681C114.983,-169.68 127.248,-175.046 139.031,-180.201"/>
<polygon fill="black" stroke="black" points="137.788,-183.477 148.352,-184.279 140.593,-177.064 137.788,-183.477"/>
</g>
<!-- start&#45;&gt;logic -->
<g id="edge4" class="edge"><title>start&#45;&gt;logic</title>
<path fill="none" stroke="black" d="M103.557,-121.319C114.983,-116.32 127.248,-110.954 139.031,-105.799"/>
<polygon fill="black" stroke="black" points="140.593,-108.936 148.352,-101.721 137.788,-102.523 140.593,-108.936"/>
</g>
</g>
</svg>
